<svg xmlns="http://www.w3.org/2000/svg" xmlns:xlink="http://www.w3.org/1999/xlink" width="288" zoomAndPan="magnify" viewBox="0 0 216 223.92" height="288" preserveAspectRatio="xMidYMid meet" version="1.2"><defs><clipPath id="2502b9b1e8"><path d="M 9.425781 7 L 209 7 L 209 206.535156 L 9.425781 206.535156 Z M 9.425781 7 "/></clipPath><clipPath id="69085e9ce0"><path d="M 9.855469 206.105469 C 9.855469 96.304688 98.863281 7.296875 208.664062 7.296875 L 208.664062 12.203125 C 101.574219 12.203125 14.765625 99.011719 14.765625 206.105469 Z M 9.855469 206.105469 "/></clipPath><clipPath id="eb5c973fdb"><path d="M 108 105 L 209 105 L 209 206.535156 L 108 206.535156 Z M 108 105 "/></clipPath><clipPath id="30d48e2427"><path d="M 108.035156 206.105469 C 108.035156 150.535156 153.097656 105.472656 208.664062 105.472656 L 208.664062 110.382812 C 155.808594 110.382812 112.941406 153.246094 112.941406 206.105469 Z M 108.035156 206.105469 "/></clipPath><clipPath id="4eae983aff"><path d="M 157.046875 154.484375 L 209 154.484375 L 209 206.535156 L 157.046875 206.535156 Z M 157.046875 154.484375 "/></clipPath><clipPath id="35968ec150"><path d="M 157.121094 206.105469 C 157.121094 177.632812 180.195312 154.5625 208.664062 154.5625 L 208.664062 159.472656 C 182.902344 159.472656 162.03125 180.34375 162.03125 206.105469 Z M 157.121094 206.105469 "/></clipPath><clipPath id="5a07d7516b"><path d="M 58.917969 56.355469 L 209 56.355469 L 209 206.535156 L 58.917969 206.535156 Z M 58.917969 56.355469 "/></clipPath><clipPath id="4226dccbcb"><path d="M 58.945312 206.105469 C 58.945312 123.421875 125.980469 56.382812 208.664062 56.382812 L 208.664062 61.292969 C 128.691406 61.292969 63.855469 126.128906 63.855469 206.105469 Z M 58.945312 206.105469 "/></clipPath></defs><g id="b0160465c3"><g clip-rule="nonzero" clip-path="url(#2502b9b1e8)"><g clip-rule="nonzero" clip-path="url(#69085e9ce0)"><path style=" stroke:none;fill-rule:nonzero;fill:#5748b5;fill-opacity:1;" d="M 0.0390625 -2.523438 L 218.484375 -2.523438 L 218.484375 215.921875 L 0.0390625 215.921875 Z M 0.0390625 -2.523438 "/></g></g><g clip-rule="nonzero" clip-path="url(#eb5c973fdb)"><g clip-rule="nonzero" clip-path="url(#30d48e2427)"><path style=" stroke:none;fill-rule:nonzero;fill:#5748b5;fill-opacity:1;" d="M 0.0390625 -2.523438 L 218.484375 -2.523438 L 218.484375 215.921875 L 0.0390625 215.921875 Z M 0.0390625 -2.523438 "/></g></g><g clip-rule="nonzero" clip-path="url(#4eae983aff)"><g clip-rule="nonzero" clip-path="url(#35968ec150)"><path style=" stroke:none;fill-rule:nonzero;fill:#5748b5;fill-opacity:1;" d="M 0.0390625 -2.523438 L 218.484375 -2.523438 L 218.484375 215.921875 L 0.0390625 215.921875 Z M 0.0390625 -2.523438 "/></g></g><g clip-rule="nonzero" clip-path="url(#5a07d7516b)"><g clip-rule="nonzero" clip-path="url(#4226dccbcb)"><path style=" stroke:none;fill-rule:nonzero;fill:#5748b5;fill-opacity:1;" d="M 0.0390625 -2.523438 L 218.484375 -2.523438 L 218.484375 215.921875 L 0.0390625 215.921875 Z M 0.0390625 -2.523438 "/></g></g></g></svg>