<svg xmlns="http://www.w3.org/2000/svg" xmlns:xlink="http://www.w3.org/1999/xlink" width="288" zoomAndPan="magnify" viewBox="0 0 216 223.92" height="288" preserveAspectRatio="xMidYMid meet" version="1.2"><defs><clipPath id="d23a72ec26"><path d="M 9.316406 9.277344 L 206.683594 9.277344 L 206.683594 206.644531 L 9.316406 206.644531 Z M 9.316406 9.277344 "/></clipPath><clipPath id="8e096173ce"><path d="M 206.148438 9.816406 C 97.734375 9.816406 9.851562 97.695312 9.851562 206.109375 L 206.148438 206.109375 Z M 206.148438 9.816406 "/></clipPath><clipPath id="7bafae8572"><path d="M 108 107.960938 L 206.683594 107.960938 L 206.683594 206.644531 L 108 206.644531 Z M 108 107.960938 "/></clipPath><clipPath id="8b46ec28d2"><path d="M 206.148438 107.960938 C 151.949219 107.960938 108 151.910156 108 206.109375 L 206.148438 206.109375 Z M 206.148438 107.960938 "/></clipPath><clipPath id="a435644d11"><path d="M 157 157 L 206.683594 157 L 206.683594 206.644531 L 157 206.644531 Z M 157 157 "/></clipPath><clipPath id="ddfe4fd86b"><path d="M 206.148438 157.035156 C 179.039062 157.035156 157.074219 179 157.074219 206.109375 L 206.148438 206.109375 Z M 206.148438 157.035156 "/></clipPath><clipPath id="466e4c33fd"><path d="M 58.238281 58.199219 L 206.683594 58.199219 L 206.683594 206.644531 L 58.238281 206.644531 Z M 58.238281 58.199219 "/></clipPath><clipPath id="6c4a8b4fbf"><path d="M 206.148438 58.886719 C 124.84375 58.886719 58.925781 124.804688 58.925781 206.109375 L 206.148438 206.109375 Z M 206.148438 58.886719 "/></clipPath></defs><g id="dbc604cfd8"><g clip-rule="nonzero" clip-path="url(#d23a72ec26)"><g clip-rule="nonzero" clip-path="url(#8e096173ce)"><path style=" stroke:none;fill-rule:nonzero;fill:#049dff;fill-opacity:1;" d="M 0.0390625 0 L 215.960938 0 L 215.960938 215.921875 L 0.0390625 215.921875 Z M 0.0390625 0 "/></g></g><g clip-rule="nonzero" clip-path="url(#7bafae8572)"><g clip-rule="nonzero" clip-path="url(#8b46ec28d2)"><path style=" stroke:none;fill-rule:nonzero;fill:#049dff;fill-opacity:1;" d="M 0.0390625 0 L 215.960938 0 L 215.960938 215.921875 L 0.0390625 215.921875 Z M 0.0390625 0 "/></g></g><g clip-rule="nonzero" clip-path="url(#a435644d11)"><g clip-rule="nonzero" clip-path="url(#ddfe4fd86b)"><path style=" stroke:none;fill-rule:nonzero;fill:#049dff;fill-opacity:1;" d="M 0.0390625 0 L 215.960938 0 L 215.960938 215.921875 L 0.0390625 215.921875 Z M 0.0390625 0 "/></g></g><g clip-rule="nonzero" clip-path="url(#466e4c33fd)"><g clip-rule="nonzero" clip-path="url(#6c4a8b4fbf)"><path style=" stroke:none;fill-rule:nonzero;fill:#049dff;fill-opacity:1;" d="M 0.0390625 0 L 215.960938 0 L 215.960938 215.921875 L 0.0390625 215.921875 Z M 0.0390625 0 "/></g></g></g></svg>