<svg xmlns="http://www.w3.org/2000/svg" xmlns:xlink="http://www.w3.org/1999/xlink" width="288" zoomAndPan="magnify" viewBox="0 0 216 223.92" height="288" preserveAspectRatio="xMidYMid meet" version="1.2"><defs><clipPath id="761a7eee45"><path d="M 9.316406 105.429688 L 110.53125 105.429688 L 110.53125 206.644531 L 9.316406 206.644531 Z M 9.316406 105.429688 "/></clipPath><clipPath id="a8a42aa282"><path d="M 9.851562 105.507812 C 65.40625 105.507812 110.453125 150.558594 110.453125 206.109375 L 105.546875 206.109375 C 105.546875 153.265625 62.695312 110.414062 9.851562 110.414062 Z M 9.851562 105.507812 "/></clipPath><clipPath id="5a9dbe2d29"><path d="M 9.316406 9.277344 L 110.53125 9.277344 L 110.53125 110.492188 L 9.316406 110.492188 Z M 9.316406 9.277344 "/></clipPath><clipPath id="123d8548d6"><path d="M 110.453125 9.816406 C 110.453125 65.367188 65.40625 110.414062 9.851562 110.414062 L 9.851562 105.507812 C 62.695312 105.507812 105.546875 62.65625 105.546875 9.816406 Z M 110.453125 9.816406 "/></clipPath><clipPath id="5c4d02329f"><path d="M 105.46875 9.277344 L 206.683594 9.277344 L 206.683594 110.492188 L 105.46875 110.492188 Z M 105.46875 9.277344 "/></clipPath><clipPath id="25633d8881"><path d="M 110.453125 9.816406 C 110.453125 62.65625 153.304688 105.507812 206.148438 105.507812 L 206.148438 110.414062 C 150.59375 110.414062 105.546875 65.367188 105.546875 9.816406 Z M 110.453125 9.816406 "/></clipPath><clipPath id="18041b6193"><path d="M 144.269531 105.429688 L 206.683594 105.429688 L 206.683594 130.734375 L 144.269531 130.734375 Z M 144.269531 105.429688 "/></clipPath><clipPath id="9d5d2ab198"><path d="M 206.148438 110.414062 C 184.199219 110.414062 164.023438 117.816406 147.867188 130.222656 L 144.882812 126.335938 C 161.84375 113.28125 183.082031 105.507812 206.148438 105.507812 Z M 206.148438 110.414062 "/></clipPath><clipPath id="2d96fa66ac"><path d="M 105.46875 144.230469 L 130.773438 144.230469 L 130.773438 206.644531 L 105.46875 206.644531 Z M 105.46875 144.230469 "/></clipPath><clipPath id="8cdd8c870f"><path d="M 130.257812 147.828125 C 117.855469 163.984375 110.453125 184.164062 110.453125 206.109375 L 105.546875 206.109375 C 105.546875 183.042969 113.320312 161.804688 126.375 144.84375 Z M 130.257812 147.828125 "/></clipPath></defs><g id="81fd33b2a8"><g clip-rule="nonzero" clip-path="url(#761a7eee45)"><g clip-rule="nonzero" clip-path="url(#a8a42aa282)"><path style=" stroke:none;fill-rule:nonzero;fill:#5748b5;fill-opacity:1;" d="M 0.0390625 0 L 215.960938 0 L 215.960938 215.921875 L 0.0390625 215.921875 Z M 0.0390625 0 "/></g></g><g clip-rule="nonzero" clip-path="url(#5a9dbe2d29)"><g clip-rule="nonzero" clip-path="url(#123d8548d6)"><path style=" stroke:none;fill-rule:nonzero;fill:#5748b5;fill-opacity:1;" d="M 0.0390625 0 L 215.960938 0 L 215.960938 215.921875 L 0.0390625 215.921875 Z M 0.0390625 0 "/></g></g><g clip-rule="nonzero" clip-path="url(#5c4d02329f)"><g clip-rule="nonzero" clip-path="url(#25633d8881)"><path style=" stroke:none;fill-rule:nonzero;fill:#5748b5;fill-opacity:1;" d="M 0.0390625 0 L 215.960938 0 L 215.960938 215.921875 L 0.0390625 215.921875 Z M 0.0390625 0 "/></g></g><g clip-rule="nonzero" clip-path="url(#18041b6193)"><g clip-rule="nonzero" clip-path="url(#9d5d2ab198)"><path style=" stroke:none;fill-rule:nonzero;fill:#5748b5;fill-opacity:1;" d="M 0.0390625 0 L 215.960938 0 L 215.960938 215.921875 L 0.0390625 215.921875 Z M 0.0390625 0 "/></g></g><g clip-rule="nonzero" clip-path="url(#2d96fa66ac)"><g clip-rule="nonzero" clip-path="url(#8cdd8c870f)"><path style=" stroke:none;fill-rule:nonzero;fill:#5748b5;fill-opacity:1;" d="M 0.0390625 0 L 215.960938 0 L 215.960938 215.921875 L 0.0390625 215.921875 Z M 0.0390625 0 "/></g></g></g></svg>