<svg xmlns="http://www.w3.org/2000/svg" xmlns:xlink="http://www.w3.org/1999/xlink" width="288" zoomAndPan="magnify" viewBox="0 0 216 223.92" height="288" preserveAspectRatio="xMidYMid meet" version="1.2"><defs><clipPath id="2f6aea7462"><path d="M 5.011719 115 L 66.328125 115 L 66.328125 129.746094 L 5.011719 129.746094 Z M 5.011719 115 "/></clipPath><clipPath id="d4d587df88"><path d="M 66.003906 117.644531 L 5.773438 129.628906 L 5.261719 127.070312 L 65.5 115.082031 Z M 66.003906 117.644531 "/></clipPath><clipPath id="dd3e0e7c2b"><path d="M 48.511719 143.003906 L 85.386719 143.003906 L 85.386719 195.621094 L 48.511719 195.621094 Z M 48.511719 143.003906 "/></clipPath><clipPath id="b8e3799d67"><path d="M 85.15625 144.496094 L 51.03125 195.574219 L 48.855469 194.121094 L 82.984375 143.054688 Z M 85.15625 144.496094 "/></clipPath><clipPath id="d52fc96fdc"><path d="M 20.339844 130.574219 L 72.957031 130.574219 L 72.957031 167.449219 L 20.339844 167.449219 Z M 20.339844 130.574219 "/></clipPath><clipPath id="e57db4e932"><path d="M 72.910156 132.984375 L 21.84375 167.097656 L 20.394531 164.925781 L 71.457031 130.808594 Z M 72.910156 132.984375 "/></clipPath><clipPath id="352e6a5025"><path d="M 86.214844 149.632812 L 101 149.632812 L 101 210.949219 L 86.214844 210.949219 Z M 86.214844 149.632812 "/></clipPath><clipPath id="89ff798a65"><path d="M 100.882812 150.464844 L 88.898438 210.703125 L 86.335938 210.191406 L 98.3125 149.953125 Z M 100.882812 150.464844 "/></clipPath><clipPath id="f44cf55bca"><path d="M 86.214844 5 L 101 5 L 101 66 L 86.214844 66 Z M 86.214844 5 "/></clipPath><clipPath id="5ec840af29"><path d="M 98.3125 65.964844 L 86.335938 5.738281 L 88.898438 5.222656 L 100.882812 65.464844 Z M 98.3125 65.964844 "/></clipPath><clipPath id="540732132a"><path d="M 20.339844 48.472656 L 72.957031 48.472656 L 72.957031 85.347656 L 20.339844 85.347656 Z M 20.339844 48.472656 "/></clipPath><clipPath id="4d20be81a1"><path d="M 71.457031 85.117188 L 20.394531 50.992188 L 21.84375 48.816406 L 72.910156 82.945312 Z M 71.457031 85.117188 "/></clipPath><clipPath id="a8076345fa"><path d="M 48.511719 20.300781 L 85.386719 20.300781 L 85.386719 72.917969 L 48.511719 72.917969 Z M 48.511719 20.300781 "/></clipPath><clipPath id="fb61ca545b"><path d="M 82.984375 72.871094 L 48.867188 21.808594 L 51.039062 20.355469 L 85.15625 71.417969 Z M 82.984375 72.871094 "/></clipPath><clipPath id="1617e8601e"><path d="M 5.011719 86.175781 L 66.328125 86.175781 L 66.328125 101 L 5.011719 101 Z M 5.011719 86.175781 "/></clipPath><clipPath id="da8d7ce84a"><path d="M 65.5 100.84375 L 5.261719 88.859375 L 5.773438 86.296875 L 66.003906 98.273438 Z M 65.5 100.84375 "/></clipPath><clipPath id="e173586935"><path d="M 149.671875 86.175781 L 210.988281 86.175781 L 210.988281 101 L 149.671875 101 Z M 149.671875 86.175781 "/></clipPath><clipPath id="57c046735e"><path d="M 210.742188 88.859375 L 150.503906 100.84375 L 149.992188 98.285156 L 210.230469 86.296875 Z M 210.742188 88.859375 "/></clipPath><clipPath id="0ff19e7ec5"><path d="M 130.613281 20.300781 L 167.488281 20.300781 L 167.488281 72.917969 L 130.613281 72.917969 Z M 130.613281 20.300781 "/></clipPath><clipPath id="4b4986727d"><path d="M 167.136719 21.808594 L 133.019531 72.871094 L 130.847656 71.417969 L 164.964844 20.355469 Z M 167.136719 21.808594 "/></clipPath><clipPath id="cf20ca90a6"><path d="M 143.042969 48.472656 L 195.660156 48.472656 L 195.660156 85.347656 L 143.042969 85.347656 Z M 143.042969 48.472656 "/></clipPath><clipPath id="d2e6d8bbed"><path d="M 195.609375 50.992188 L 144.535156 85.117188 L 143.082031 82.945312 L 194.160156 48.828125 Z M 195.609375 50.992188 "/></clipPath><clipPath id="df0d4694bc"><path d="M 115 5 L 129.785156 5 L 129.785156 66 L 115 66 Z M 115 5 "/></clipPath><clipPath id="c4ab6176f7"><path d="M 129.667969 5.738281 L 117.683594 65.964844 L 115.121094 65.464844 L 127.105469 5.222656 Z M 129.667969 5.738281 "/></clipPath><clipPath id="82f50b8b9c"><path d="M 115 149.632812 L 129.785156 149.632812 L 129.785156 210.949219 L 115 210.949219 Z M 115 149.632812 "/></clipPath><clipPath id="96e7d35114"><path d="M 127.105469 210.703125 L 115.121094 150.464844 L 117.683594 149.953125 L 129.667969 210.191406 Z M 127.105469 210.703125 "/></clipPath><clipPath id="497ff47d2e"><path d="M 143.042969 130.574219 L 195.660156 130.574219 L 195.660156 167.449219 L 143.042969 167.449219 Z M 143.042969 130.574219 "/></clipPath><clipPath id="54029b705d"><path d="M 194.160156 167.097656 L 143.09375 132.984375 L 144.546875 130.808594 L 195.609375 164.925781 Z M 194.160156 167.097656 "/></clipPath><clipPath id="dee9389aec"><path d="M 130.613281 143.003906 L 167.488281 143.003906 L 167.488281 195.621094 L 130.613281 195.621094 Z M 130.613281 143.003906 "/></clipPath><clipPath id="e2263fc071"><path d="M 164.964844 195.574219 L 130.847656 144.496094 L 133.019531 143.046875 L 167.136719 194.121094 Z M 164.964844 195.574219 "/></clipPath><clipPath id="db5fcc23e9"><path d="M 149.671875 115 L 210.988281 115 L 210.988281 129.746094 L 149.671875 129.746094 Z M 149.671875 115 "/></clipPath><clipPath id="90a0ea9493"><path d="M 210.230469 129.628906 L 149.992188 117.644531 L 150.503906 115.082031 L 210.742188 127.070312 Z M 210.230469 129.628906 "/></clipPath></defs><g id="6be4b8280a"><g clip-rule="nonzero" clip-path="url(#2f6aea7462)"><g clip-rule="nonzero" clip-path="url(#d4d587df88)"><path style=" stroke:none;fill-rule:nonzero;fill:#5748b5;fill-opacity:1;" d="M 0.0390625 109.859375 L 106.101562 109.859375 L 106.101562 215.921875 L 0.0390625 215.921875 Z M 0.0390625 109.859375 "/></g></g><g clip-rule="nonzero" clip-path="url(#dd3e0e7c2b)"><g clip-rule="nonzero" clip-path="url(#b8e3799d67)"><path style=" stroke:none;fill-rule:nonzero;fill:#5748b5;fill-opacity:1;" d="M 0.0390625 109.859375 L 106.101562 109.859375 L 106.101562 215.921875 L 0.0390625 215.921875 Z M 0.0390625 109.859375 "/></g></g><g clip-rule="nonzero" clip-path="url(#d52fc96fdc)"><g clip-rule="nonzero" clip-path="url(#e57db4e932)"><path style=" stroke:none;fill-rule:nonzero;fill:#5748b5;fill-opacity:1;" d="M 0.0390625 109.859375 L 106.101562 109.859375 L 106.101562 215.921875 L 0.0390625 215.921875 Z M 0.0390625 109.859375 "/></g></g><g clip-rule="nonzero" clip-path="url(#352e6a5025)"><g clip-rule="nonzero" clip-path="url(#89ff798a65)"><path style=" stroke:none;fill-rule:nonzero;fill:#5748b5;fill-opacity:1;" d="M 0.0390625 109.859375 L 106.101562 109.859375 L 106.101562 215.921875 L 0.0390625 215.921875 Z M 0.0390625 109.859375 "/></g></g><g clip-rule="nonzero" clip-path="url(#f44cf55bca)"><g clip-rule="nonzero" clip-path="url(#5ec840af29)"><path style=" stroke:none;fill-rule:nonzero;fill:#5748b5;fill-opacity:1;" d="M 0.0390625 0 L 106.101562 0 L 106.101562 106.0625 L 0.0390625 106.0625 Z M 0.0390625 0 "/></g></g><g clip-rule="nonzero" clip-path="url(#540732132a)"><g clip-rule="nonzero" clip-path="url(#4d20be81a1)"><path style=" stroke:none;fill-rule:nonzero;fill:#5748b5;fill-opacity:1;" d="M 0.0390625 0 L 106.101562 0 L 106.101562 106.0625 L 0.0390625 106.0625 Z M 0.0390625 0 "/></g></g><g clip-rule="nonzero" clip-path="url(#a8076345fa)"><g clip-rule="nonzero" clip-path="url(#fb61ca545b)"><path style=" stroke:none;fill-rule:nonzero;fill:#5748b5;fill-opacity:1;" d="M 0.0390625 0 L 106.101562 0 L 106.101562 106.0625 L 0.0390625 106.0625 Z M 0.0390625 0 "/></g></g><g clip-rule="nonzero" clip-path="url(#1617e8601e)"><g clip-rule="nonzero" clip-path="url(#da8d7ce84a)"><path style=" stroke:none;fill-rule:nonzero;fill:#5748b5;fill-opacity:1;" d="M 0.0390625 0 L 106.101562 0 L 106.101562 106.0625 L 0.0390625 106.0625 Z M 0.0390625 0 "/></g></g><g clip-rule="nonzero" clip-path="url(#e173586935)"><g clip-rule="nonzero" clip-path="url(#57c046735e)"><path style=" stroke:none;fill-rule:nonzero;fill:#5748b5;fill-opacity:1;" d="M 109.898438 0 L 215.960938 0 L 215.960938 106.0625 L 109.898438 106.0625 Z M 109.898438 0 "/></g></g><g clip-rule="nonzero" clip-path="url(#0ff19e7ec5)"><g clip-rule="nonzero" clip-path="url(#4b4986727d)"><path style=" stroke:none;fill-rule:nonzero;fill:#5748b5;fill-opacity:1;" d="M 109.898438 0 L 215.960938 0 L 215.960938 106.0625 L 109.898438 106.0625 Z M 109.898438 0 "/></g></g><g clip-rule="nonzero" clip-path="url(#cf20ca90a6)"><g clip-rule="nonzero" clip-path="url(#d2e6d8bbed)"><path style=" stroke:none;fill-rule:nonzero;fill:#5748b5;fill-opacity:1;" d="M 109.898438 0 L 215.960938 0 L 215.960938 106.0625 L 109.898438 106.0625 Z M 109.898438 0 "/></g></g><g clip-rule="nonzero" clip-path="url(#df0d4694bc)"><g clip-rule="nonzero" clip-path="url(#c4ab6176f7)"><path style=" stroke:none;fill-rule:nonzero;fill:#5748b5;fill-opacity:1;" d="M 109.898438 0 L 215.960938 0 L 215.960938 106.0625 L 109.898438 106.0625 Z M 109.898438 0 "/></g></g><g clip-rule="nonzero" clip-path="url(#82f50b8b9c)"><g clip-rule="nonzero" clip-path="url(#96e7d35114)"><path style=" stroke:none;fill-rule:nonzero;fill:#5748b5;fill-opacity:1;" d="M 109.898438 109.859375 L 215.960938 109.859375 L 215.960938 215.921875 L 109.898438 215.921875 Z M 109.898438 109.859375 "/></g></g><g clip-rule="nonzero" clip-path="url(#497ff47d2e)"><g clip-rule="nonzero" clip-path="url(#54029b705d)"><path style=" stroke:none;fill-rule:nonzero;fill:#5748b5;fill-opacity:1;" d="M 109.898438 109.859375 L 215.960938 109.859375 L 215.960938 215.921875 L 109.898438 215.921875 Z M 109.898438 109.859375 "/></g></g><g clip-rule="nonzero" clip-path="url(#dee9389aec)"><g clip-rule="nonzero" clip-path="url(#e2263fc071)"><path style=" stroke:none;fill-rule:nonzero;fill:#5748b5;fill-opacity:1;" d="M 109.898438 109.859375 L 215.960938 109.859375 L 215.960938 215.921875 L 109.898438 215.921875 Z M 109.898438 109.859375 "/></g></g><g clip-rule="nonzero" clip-path="url(#db5fcc23e9)"><g clip-rule="nonzero" clip-path="url(#90a0ea9493)"><path style=" stroke:none;fill-rule:nonzero;fill:#5748b5;fill-opacity:1;" d="M 109.898438 109.859375 L 215.960938 109.859375 L 215.960938 215.921875 L 109.898438 215.921875 Z M 109.898438 109.859375 "/></g></g></g></svg>