<svg xmlns="http://www.w3.org/2000/svg" xmlns:xlink="http://www.w3.org/1999/xlink" width="288" zoomAndPan="magnify" viewBox="0 0 216 223.92" height="288" preserveAspectRatio="xMidYMid meet" version="1.2"><defs><clipPath id="3d10ef8255"><path d="M 5.058594 5.019531 L 209.195312 5.019531 L 209.195312 209.160156 L 5.058594 209.160156 Z M 5.058594 5.019531 "/></clipPath><clipPath id="89d501cd51"><path d="M 107.128906 209.140625 C 50.765625 209.140625 5.078125 163.449219 5.078125 107.089844 L 6.339844 107.089844 L 5.078125 107.089844 C 5.078125 50.726562 50.765625 5.039062 107.128906 5.039062 L 107.128906 6.300781 L 107.128906 5.039062 C 163.488281 5.039062 209.175781 50.726562 209.175781 107.089844 L 206.65625 107.089844 C 206.65625 52.117188 162.097656 7.558594 107.128906 7.558594 C 52.15625 7.558594 7.597656 52.117188 7.597656 107.089844 C 7.597656 162.058594 52.15625 206.621094 107.128906 206.621094 Z M 107.128906 209.140625 "/></clipPath><clipPath id="e417b1a6af"><path d="M 55.257812 55.21875 L 159 55.21875 L 159 158.960938 L 55.257812 158.960938 Z M 55.257812 55.21875 "/></clipPath><clipPath id="9536bb991a"><path d="M 107.128906 158.742188 C 78.605469 158.742188 55.472656 135.613281 55.472656 107.089844 L 56.734375 107.089844 L 55.472656 107.089844 C 55.472656 78.566406 78.605469 55.433594 107.128906 55.433594 L 107.128906 56.695312 L 107.128906 55.433594 C 135.652344 55.433594 158.78125 78.566406 158.78125 107.089844 L 156.261719 107.089844 C 156.261719 79.957031 134.261719 57.953125 107.128906 57.953125 C 79.996094 57.953125 57.992188 79.957031 57.992188 107.089844 C 57.992188 134.222656 79.996094 156.222656 107.128906 156.222656 Z M 107.128906 158.742188 "/></clipPath><clipPath id="f9771e562c"><path d="M 80.355469 80.316406 L 133.898438 80.316406 L 133.898438 133.863281 L 80.355469 133.863281 Z M 80.355469 80.316406 "/></clipPath><clipPath id="8c5cd1e27a"><path d="M 107.128906 133.546875 C 92.511719 133.546875 80.671875 121.703125 80.671875 107.089844 L 81.929688 107.089844 L 80.671875 107.089844 C 80.671875 92.476562 92.511719 80.632812 107.128906 80.632812 L 107.128906 81.890625 L 107.128906 80.632812 C 121.742188 80.632812 133.585938 92.476562 133.585938 107.089844 L 131.066406 107.089844 C 131.066406 93.867188 120.351562 83.152344 107.128906 83.152344 C 93.902344 83.152344 83.191406 93.867188 83.191406 107.089844 C 83.191406 120.3125 93.902344 131.027344 107.128906 131.027344 Z M 107.128906 133.546875 "/></clipPath><clipPath id="9ff3c35ecd"><path d="M 30.15625 30.117188 L 184 30.117188 L 184 184 L 30.15625 184 Z M 30.15625 30.117188 "/></clipPath><clipPath id="0918014128"><path d="M 107.128906 183.941406 C 64.683594 183.941406 30.277344 149.53125 30.277344 107.089844 L 31.535156 107.089844 L 30.277344 107.089844 C 30.277344 64.648438 64.683594 30.238281 107.128906 30.238281 L 107.128906 31.496094 L 107.128906 30.238281 C 149.570312 30.238281 183.980469 64.648438 183.980469 107.089844 L 181.460938 107.089844 C 181.460938 66.039062 148.179688 32.757812 107.128906 32.757812 C 66.074219 32.757812 32.796875 66.039062 32.796875 107.089844 C 32.796875 148.140625 66.074219 181.421875 107.128906 181.421875 Z M 107.128906 183.941406 "/></clipPath></defs><g id="cd3b15cb0e"><g clip-rule="nonzero" clip-path="url(#3d10ef8255)"><g clip-rule="nonzero" clip-path="url(#89d501cd51)"><path style=" stroke:none;fill-rule:nonzero;fill:#5748b5;fill-opacity:1;" d="M 0.0390625 0 L 214.21875 0 L 214.21875 214.179688 L 0.0390625 214.179688 Z M 0.0390625 0 "/></g></g><g clip-rule="nonzero" clip-path="url(#e417b1a6af)"><g clip-rule="nonzero" clip-path="url(#9536bb991a)"><path style=" stroke:none;fill-rule:nonzero;fill:#5748b5;fill-opacity:1;" d="M 0.0390625 0 L 214.21875 0 L 214.21875 214.179688 L 0.0390625 214.179688 Z M 0.0390625 0 "/></g></g><g clip-rule="nonzero" clip-path="url(#f9771e562c)"><g clip-rule="nonzero" clip-path="url(#8c5cd1e27a)"><path style=" stroke:none;fill-rule:nonzero;fill:#5748b5;fill-opacity:1;" d="M 0.0390625 0 L 214.21875 0 L 214.21875 214.179688 L 0.0390625 214.179688 Z M 0.0390625 0 "/></g></g><g clip-rule="nonzero" clip-path="url(#9ff3c35ecd)"><g clip-rule="nonzero" clip-path="url(#0918014128)"><path style=" stroke:none;fill-rule:nonzero;fill:#5748b5;fill-opacity:1;" d="M 0.0390625 0 L 214.21875 0 L 214.21875 214.179688 L 0.0390625 214.179688 Z M 0.0390625 0 "/></g></g></g></svg>