<svg xmlns="http://www.w3.org/2000/svg" xmlns:xlink="http://www.w3.org/1999/xlink" width="288" zoomAndPan="magnify" viewBox="0 0 216 223.92" height="288" preserveAspectRatio="xMidYMid meet" version="1.2"><defs><clipPath id="df026d4601"><path d="M 85.226562 85.1875 L 130.773438 85.1875 L 130.773438 130.734375 L 85.226562 130.734375 Z M 85.226562 85.1875 "/></clipPath><clipPath id="78738bc377"><path d="M 108 85.621094 C 120.34375 85.621094 130.34375 95.621094 130.34375 107.960938 L 127.941406 107.960938 L 130.34375 107.960938 C 130.34375 120.304688 120.34375 130.304688 108 130.304688 L 108 127.902344 L 108 130.304688 C 95.660156 130.304688 85.660156 120.304688 85.660156 107.960938 L 88.058594 107.960938 L 85.660156 107.960938 C 85.660156 95.621094 95.660156 85.621094 108 85.621094 L 108 88.019531 L 108 85.621094 M 108 90.417969 C 98.308594 90.417969 90.457031 98.269531 90.457031 107.960938 C 90.457031 117.65625 98.308594 125.503906 108 125.503906 C 117.695312 125.503906 125.542969 117.65625 125.542969 107.960938 C 125.542969 98.269531 117.695312 90.417969 108 90.417969 Z M 108 90.417969 "/></clipPath><clipPath id="d85e946b72"><path d="M 85.226562 9.277344 L 130.773438 9.277344 L 130.773438 54.824219 L 85.226562 54.824219 Z M 85.226562 9.277344 "/></clipPath><clipPath id="163f88d841"><path d="M 130.34375 31.9375 C 130.34375 44.277344 120.34375 54.277344 108 54.277344 L 108 51.878906 L 108 54.277344 C 95.660156 54.277344 85.660156 44.277344 85.660156 31.9375 L 88.058594 31.9375 L 85.660156 31.9375 C 85.660156 19.597656 95.660156 9.597656 108 9.597656 L 108 11.996094 L 108 9.597656 C 120.34375 9.597656 130.34375 19.597656 130.34375 31.9375 L 127.941406 31.9375 L 130.34375 31.9375 M 125.542969 31.9375 C 125.542969 22.246094 117.695312 14.394531 108 14.394531 C 98.308594 14.394531 90.457031 22.246094 90.457031 31.9375 C 90.457031 41.628906 98.308594 49.480469 108 49.480469 C 117.695312 49.480469 125.542969 41.628906 125.542969 31.9375 Z M 125.542969 31.9375 "/></clipPath><clipPath id="f498cba9c5"><path d="M 85.226562 161.097656 L 130.773438 161.097656 L 130.773438 206.644531 L 85.226562 206.644531 Z M 85.226562 161.097656 "/></clipPath><clipPath id="f47ece2480"><path d="M 130.34375 183.988281 C 130.34375 196.328125 120.34375 206.328125 108 206.328125 L 108 203.929688 L 108 206.328125 C 95.660156 206.328125 85.660156 196.328125 85.660156 183.988281 L 88.058594 183.988281 L 85.660156 183.988281 C 85.660156 171.644531 95.660156 161.644531 108 161.644531 L 108 164.046875 L 108 161.644531 C 120.34375 161.644531 130.34375 171.644531 130.34375 183.988281 L 127.941406 183.988281 L 130.34375 183.988281 M 125.542969 183.988281 C 125.542969 174.292969 117.695312 166.445312 108 166.445312 C 98.308594 166.445312 90.457031 174.292969 90.457031 183.988281 C 90.457031 193.679688 98.308594 201.53125 108 201.53125 C 117.695312 201.53125 125.542969 193.679688 125.542969 183.988281 Z M 125.542969 183.988281 "/></clipPath><clipPath id="e1dcd8b327"><path d="M 9.316406 85.1875 L 54.863281 85.1875 L 54.863281 130.734375 L 9.316406 130.734375 Z M 9.316406 85.1875 "/></clipPath><clipPath id="f475081705"><path d="M 31.976562 85.621094 C 44.316406 85.621094 54.316406 95.621094 54.316406 107.960938 L 51.917969 107.960938 L 54.316406 107.960938 C 54.316406 120.304688 44.316406 130.304688 31.976562 130.304688 L 31.976562 127.902344 L 31.976562 130.304688 C 19.636719 130.304688 9.636719 120.304688 9.636719 107.960938 L 12.035156 107.960938 L 9.636719 107.960938 C 9.636719 95.621094 19.636719 85.621094 31.976562 85.621094 L 31.976562 88.019531 L 31.976562 85.621094 M 31.976562 90.417969 C 22.285156 90.417969 14.433594 98.269531 14.433594 107.960938 C 14.433594 117.65625 22.285156 125.503906 31.976562 125.503906 C 41.667969 125.503906 49.519531 117.65625 49.519531 107.960938 C 49.519531 98.269531 41.667969 90.417969 31.976562 90.417969 Z M 31.976562 90.417969 "/></clipPath><clipPath id="b4d1d6813a"><path d="M 161.136719 85.1875 L 206.683594 85.1875 L 206.683594 130.734375 L 161.136719 130.734375 Z M 161.136719 85.1875 "/></clipPath><clipPath id="34a8fdea25"><path d="M 184.027344 85.621094 C 196.367188 85.621094 206.367188 95.621094 206.367188 107.960938 L 203.96875 107.960938 L 206.367188 107.960938 C 206.367188 120.304688 196.367188 130.304688 184.027344 130.304688 L 184.027344 127.902344 L 184.027344 130.304688 C 171.683594 130.304688 161.683594 120.304688 161.683594 107.960938 L 164.082031 107.960938 L 161.683594 107.960938 C 161.683594 95.621094 171.683594 85.621094 184.027344 85.621094 L 184.027344 88.019531 L 184.027344 85.621094 M 184.027344 90.417969 C 174.332031 90.417969 166.484375 98.269531 166.484375 107.960938 C 166.484375 117.65625 174.332031 125.503906 184.027344 125.503906 C 193.71875 125.503906 201.566406 117.65625 201.566406 107.960938 C 201.566406 98.269531 193.71875 90.417969 184.027344 90.417969 Z M 184.027344 90.417969 "/></clipPath><clipPath id="96276fb8b8"><path d="M 31.246094 31.207031 L 76.792969 31.207031 L 76.792969 76.753906 L 31.246094 76.753906 Z M 31.246094 31.207031 "/></clipPath><clipPath id="3b2f882d85"><path d="M 70.035156 38.40625 C 78.769531 47.140625 78.769531 61.285156 70.035156 69.996094 L 68.347656 68.308594 L 70.035156 69.996094 C 61.304688 78.730469 47.15625 78.730469 38.445312 69.996094 L 40.132812 68.308594 L 38.445312 69.996094 C 29.710938 61.265625 29.710938 47.121094 38.445312 38.40625 L 40.132812 40.09375 L 38.445312 38.40625 C 47.175781 29.671875 61.324219 29.671875 70.035156 38.40625 L 68.347656 40.09375 L 70.035156 38.40625 M 66.640625 41.804688 C 59.789062 34.949219 48.675781 34.949219 41.824219 41.804688 C 34.96875 48.65625 34.96875 59.769531 41.824219 66.621094 C 48.675781 73.472656 59.789062 73.472656 66.640625 66.621094 C 73.492188 59.769531 73.492188 48.65625 66.640625 41.804688 Z M 66.640625 41.804688 "/></clipPath><clipPath id="d1b26e3f95"><path d="M 139.207031 139.167969 L 184.753906 139.167969 L 184.753906 184.714844 L 139.207031 184.714844 Z M 139.207031 139.167969 "/></clipPath><clipPath id="3bcb449cf2"><path d="M 177.558594 145.925781 C 186.289062 154.660156 186.289062 168.804688 177.558594 177.519531 L 175.867188 175.828125 L 177.558594 177.519531 C 168.824219 186.25 154.679688 186.25 145.964844 177.519531 L 147.65625 175.828125 L 145.964844 177.519531 C 137.230469 168.785156 137.230469 154.640625 145.964844 145.925781 L 147.65625 147.617188 L 145.964844 145.925781 C 154.699219 137.195312 168.84375 137.195312 177.558594 145.925781 L 175.867188 147.617188 L 177.558594 145.925781 M 174.160156 149.324219 C 167.308594 142.472656 156.195312 142.472656 149.34375 149.324219 C 142.492188 156.175781 142.492188 167.289062 149.34375 174.140625 C 156.195312 180.992188 167.308594 180.992188 174.160156 174.140625 C 181.011719 167.289062 181.011719 156.175781 174.160156 149.324219 Z M 174.160156 149.324219 "/></clipPath><clipPath id="7498f54267"><path d="M 31.246094 139.167969 L 76.792969 139.167969 L 76.792969 184.714844 L 31.246094 184.714844 Z M 31.246094 139.167969 "/></clipPath><clipPath id="0fbb133cb3"><path d="M 38.445312 145.925781 C 47.175781 137.195312 61.324219 137.195312 70.035156 145.925781 L 68.347656 147.617188 L 70.035156 145.925781 C 78.769531 154.660156 78.769531 168.804688 70.035156 177.519531 L 68.347656 175.828125 L 70.035156 177.519531 C 61.304688 186.25 47.15625 186.25 38.445312 177.519531 L 40.132812 175.828125 L 38.445312 177.519531 C 29.710938 168.785156 29.710938 154.640625 38.445312 145.925781 L 40.132812 147.617188 L 38.445312 145.925781 M 41.839844 149.324219 C 34.988281 156.175781 34.988281 167.289062 41.839844 174.140625 C 48.695312 180.992188 59.804688 180.992188 66.660156 174.140625 C 73.511719 167.289062 73.511719 156.175781 66.660156 149.324219 C 59.804688 142.472656 48.695312 142.472656 41.839844 149.324219 Z M 41.839844 149.324219 "/></clipPath><clipPath id="bc27ef029b"><path d="M 139.207031 31.207031 L 184.753906 31.207031 L 184.753906 76.753906 L 139.207031 76.753906 Z M 139.207031 31.207031 "/></clipPath><clipPath id="ce7128e6eb"><path d="M 145.964844 38.40625 C 154.699219 29.671875 168.84375 29.671875 177.558594 38.40625 L 175.867188 40.09375 L 177.558594 38.40625 C 186.289062 47.140625 186.289062 61.285156 177.558594 69.996094 L 175.867188 68.308594 L 177.558594 69.996094 C 168.824219 78.730469 154.679688 78.730469 145.964844 69.996094 L 147.65625 68.308594 L 145.964844 69.996094 C 137.230469 61.265625 137.230469 47.121094 145.964844 38.40625 L 147.65625 40.09375 L 145.964844 38.40625 M 149.363281 41.804688 C 142.511719 48.65625 142.511719 59.769531 149.363281 66.621094 C 156.214844 73.472656 167.328125 73.472656 174.179688 66.621094 C 181.03125 59.769531 181.03125 48.65625 174.179688 41.804688 C 167.328125 34.949219 156.214844 34.949219 149.363281 41.804688 Z M 149.363281 41.804688 "/></clipPath></defs><g id="7010123e76"><g clip-rule="nonzero" clip-path="url(#df026d4601)"><g clip-rule="nonzero" clip-path="url(#78738bc377)"><path style=" stroke:none;fill-rule:nonzero;fill:#5748b5;fill-opacity:1;" d="M 0.0390625 0 L 215.960938 0 L 215.960938 215.921875 L 0.0390625 215.921875 Z M 0.0390625 0 "/></g></g><g clip-rule="nonzero" clip-path="url(#d85e946b72)"><g clip-rule="nonzero" clip-path="url(#163f88d841)"><path style=" stroke:none;fill-rule:nonzero;fill:#5748b5;fill-opacity:1;" d="M 0.0390625 0 L 215.960938 0 L 215.960938 215.921875 L 0.0390625 215.921875 Z M 0.0390625 0 "/></g></g><g clip-rule="nonzero" clip-path="url(#f498cba9c5)"><g clip-rule="nonzero" clip-path="url(#f47ece2480)"><path style=" stroke:none;fill-rule:nonzero;fill:#5748b5;fill-opacity:1;" d="M 0.0390625 0 L 215.960938 0 L 215.960938 215.921875 L 0.0390625 215.921875 Z M 0.0390625 0 "/></g></g><g clip-rule="nonzero" clip-path="url(#e1dcd8b327)"><g clip-rule="nonzero" clip-path="url(#f475081705)"><path style=" stroke:none;fill-rule:nonzero;fill:#5748b5;fill-opacity:1;" d="M 0.0390625 0 L 215.960938 0 L 215.960938 215.921875 L 0.0390625 215.921875 Z M 0.0390625 0 "/></g></g><g clip-rule="nonzero" clip-path="url(#b4d1d6813a)"><g clip-rule="nonzero" clip-path="url(#34a8fdea25)"><path style=" stroke:none;fill-rule:nonzero;fill:#5748b5;fill-opacity:1;" d="M 0.0390625 0 L 215.960938 0 L 215.960938 215.921875 L 0.0390625 215.921875 Z M 0.0390625 0 "/></g></g><g clip-rule="nonzero" clip-path="url(#96276fb8b8)"><g clip-rule="nonzero" clip-path="url(#3b2f882d85)"><path style=" stroke:none;fill-rule:nonzero;fill:#5748b5;fill-opacity:1;" d="M 0.0390625 0 L 215.960938 0 L 215.960938 215.921875 L 0.0390625 215.921875 Z M 0.0390625 0 "/></g></g><g clip-rule="nonzero" clip-path="url(#d1b26e3f95)"><g clip-rule="nonzero" clip-path="url(#3bcb449cf2)"><path style=" stroke:none;fill-rule:nonzero;fill:#5748b5;fill-opacity:1;" d="M 0.0390625 0 L 215.960938 0 L 215.960938 215.921875 L 0.0390625 215.921875 Z M 0.0390625 0 "/></g></g><g clip-rule="nonzero" clip-path="url(#7498f54267)"><g clip-rule="nonzero" clip-path="url(#0fbb133cb3)"><path style=" stroke:none;fill-rule:nonzero;fill:#5748b5;fill-opacity:1;" d="M 0.0390625 0 L 215.960938 0 L 215.960938 215.921875 L 0.0390625 215.921875 Z M 0.0390625 0 "/></g></g><g clip-rule="nonzero" clip-path="url(#bc27ef029b)"><g clip-rule="nonzero" clip-path="url(#ce7128e6eb)"><path style=" stroke:none;fill-rule:nonzero;fill:#5748b5;fill-opacity:1;" d="M 0.0390625 0 L 215.960938 0 L 215.960938 215.921875 L 0.0390625 215.921875 Z M 0.0390625 0 "/></g></g></g></svg>